<svg width="33" height="32" viewBox="0 0 33 32" fill="none" xmlns="http://www.w3.org/2000/svg">
<circle cx="16.5" cy="16" r="15.25" stroke="#F5B754" stroke-width="1.5"/>
<path d="M17.333 7.69167V7.70833V9.375C20.9913 9.825 23.583 13.15 23.133 16.8083C22.7497 19.8417 20.3663 22.25 17.333 22.6083V24.275C21.9163 23.8167 25.2497 19.75 24.7913 15.1667C24.4163 11.2083 21.2747 8.08333 17.333 7.69167ZM15.6663 7.71667C14.0413 7.875 12.4913 8.5 11.2247 9.55L12.4163 10.7833C13.3497 10.0333 14.4747 9.55 15.6663 9.38333V7.71667ZM10.0497 10.725C8.99967 11.9917 8.37467 13.5333 8.20801 15.1667H9.87467C10.033 13.9833 10.4997 12.8583 11.2413 11.9167L10.0497 10.725ZM19.4163 13.0833L15.3497 17.15L13.583 15.3833L12.6997 16.2667L15.3497 18.9167L20.2997 13.9667L19.4163 13.0833ZM8.21634 16.8333C8.38301 18.4667 9.02467 20.0083 10.058 21.275L11.2413 20.0833C10.508 19.1417 10.033 18.0167 9.88301 16.8333H8.21634ZM12.4163 21.3083L11.2247 22.45C12.483 23.5 14.033 24.1583 15.6663 24.3333V22.6667C14.483 22.5167 13.358 22.0417 12.4163 21.3083Z" fill="#F5B754"/>
</svg>
